# xmcd
#
# Track frame offsets: 
#        150
#        5971
#        34451
#        47851
#        63276
#        81129
#        99138
#        116012
#        137923
#        167181
#        213513
#        236336
#        248289
#        261699
#        273490
#        299504
#        312349
#        323614
#
# Disc length: 4497 seconds
#
# Revision: 0
# Processed by: cddbd v1.5.2PL0 Copyright (c) Steve Scherf et al.
# Submitted via: ExactAudioCopy v0.99pb5
#
DISCID=0c118f12
DTITLE=Gerry Mulligan  - Chicco Hamilton - Complete at Newport 1958  F
DTITLE=LAC
DYEAR=1900
DGENRE=
TTITLE0=Gerry Mulligan, Art Farmer, Chico Hamilton, Eric Dolphy - Anno
TTITLE0=uncement
TTITLE1=Gerry Mulligan, Art Farmer, Chico Hamilton, Eric Dolphy - The 
TTITLE1=Festive Minor
TTITLE2=Gerry Mulligan, Art Farmer, Chico Hamilton, Eric Dolphy - Bern
TTITLE2=ie's Tune
TTITLE3=Gerry Mulligan, Art Farmer, Chico Hamilton, Eric Dolphy - Baub
TTITLE3=les, Bangles and Beads
TTITLE4=Gerry Mulligan, Art Farmer, Chico Hamilton, Eric Dolphy - Blue
TTITLE4=port
TTITLE5=Gerry Mulligan, Art Farmer, Chico Hamilton, Eric Dolphy - Moon
TTITLE5=light in Vermont
TTITLE6=Gerry Mulligan, Art Farmer, Chico Hamilton, Eric Dolphy - News
TTITLE6=from Blueport
TTITLE7=Gerry Mulligan, Art Farmer, Chico Hamilton, Eric Dolphy - As C
TTITLE7=atch Can
TTITLE8=Gerry Mulligan, Art Farmer, Chico Hamilton, Eric Dolphy - Don'
TTITLE8=t Get Around Much Anymore
TTITLE9=Gerry Mulligan, Art Farmer, Chico Hamilton, Eric Dolphy - C Ja
TTITLE9=m Blues
TTITLE10=Gerry Mulligan, Art Farmer, Chico Hamilton, Eric Dolphy - Chr
TTITLE10=issie
TTITLE11=Gerry Mulligan, Art Farmer, Chico Hamilton, Eric Dolphy - Nic
TTITLE11=e Day
TTITLE12=Gerry Mulligan, Art Farmer, Chico Hamilton, Eric Dolphy - I'm
TTITLE12=in Love with a Wonderful Guy
TTITLE13=Gerry Mulligan, Art Farmer, Chico Hamilton, Eric Dolphy - I'm
TTITLE13=Gonna Lose that Guy
TTITLE14=Gerry Mulligan, Art Farmer, Chico Hamilton, Eric Dolphy - Blu
TTITLE14=e Sands
TTITLE15=Gerry Mulligan, Art Farmer, Chico Hamilton, Eric Dolphy - Ber
TTITLE15=nie's Tune
TTITLE16=Gerry Mulligan, Art Farmer, Chico Hamilton, Eric Dolphy - Bau
TTITLE16=bles, Bangles and Beads
TTITLE17=Gerry Mulligan, Art Farmer, Chico Hamilton, Eric Dolphy - Lin
TTITLE17=e for Lyons
EXTD=
EXTT0=
EXTT1=
EXTT2=
EXTT3=
EXTT4=
EXTT5=
EXTT6=
EXTT7=
EXTT8=
EXTT9=
EXTT10=
EXTT11=
EXTT12=
EXTT13=
EXTT14=
EXTT15=
EXTT16=
EXTT17=
PLAYORDER=
